#format: frame checksums
#version: 2
#hash: MD5
#tb 0: 1001/30000
#media_type 0: video
#codec_id 0: rawvideo
#dimensions 0: 224x202
#sar 0: 1/1
#stream#, dts,        pts, duration,     size, hash
0,          0,          0,        1,    67872, e1e3b4af5910383ff6f66b6ab1a29544
0,          1,          1,        1,    67872, 8668ef92b72f35728ebb456665d48b95
0,          2,          2,        1,    67872, dffc7c28f86f07bf28451292990e9594
0,          3,          3,        1,    67872, aebfb446fa6d48db36dbd9b5cd147f1e
0,          4,          4,        1,    67872, e3c6cb8c5bb3a26928493bfc297ab827
0,          5,          5,        1,    67872, 68dabae76c1d27ab0e1079d99cb6d413
0,          6,          6,        1,    67872, d1f7745eef748688f3871d00a7e67ef8
0,          7,          7,        1,    67872, 36738851cc2af83fd250dea4cd63941b
0,          8,          8,        1,    67872, 16c0315c43427e7e6719806a89551703
0,          9,          9,        1,    67872, c4d589c0ea4cdfc1dd6dff72084c61fd
